G04 EAGLE Gerber RS-274X export*
G75*
%MOMM*%
%FSLAX34Y34*%
%LPD*%
%IN*%
%IPPOS*%
%AMOC8*
5,1,8,0,0,1.08239X$1,22.5*%
G01*
%ADD10C,0.254000*%


D10*
X0Y0D02*
X1000000Y0D01*
X1000000Y800000D01*
X0Y800000D01*
X0Y0D01*
X41400Y113776D02*
X41332Y112731D01*
X41195Y111692D01*
X40990Y110665D01*
X40719Y109653D01*
X40383Y108661D01*
X39982Y107693D01*
X39518Y106754D01*
X38995Y105846D01*
X38413Y104975D01*
X37775Y104144D01*
X37084Y103357D01*
X36343Y102616D01*
X35556Y101925D01*
X34725Y101288D01*
X33854Y100706D01*
X32946Y100182D01*
X32007Y99718D01*
X31039Y99317D01*
X30047Y98981D01*
X29035Y98710D01*
X28008Y98505D01*
X26969Y98369D01*
X25924Y98300D01*
X24876Y98300D01*
X23831Y98369D01*
X22792Y98505D01*
X21765Y98710D01*
X20753Y98981D01*
X19761Y99317D01*
X18793Y99718D01*
X17854Y100182D01*
X16946Y100706D01*
X16075Y101288D01*
X15244Y101925D01*
X14457Y102616D01*
X13716Y103357D01*
X13025Y104144D01*
X12388Y104975D01*
X11806Y105846D01*
X11282Y106754D01*
X10818Y107693D01*
X10417Y108661D01*
X10081Y109653D01*
X9810Y110665D01*
X9605Y111692D01*
X9469Y112731D01*
X9400Y113776D01*
X9400Y114824D01*
X9469Y115869D01*
X9605Y116908D01*
X9810Y117935D01*
X10081Y118947D01*
X10417Y119939D01*
X10818Y120907D01*
X11282Y121846D01*
X11806Y122754D01*
X12388Y123625D01*
X13025Y124456D01*
X13716Y125243D01*
X14457Y125984D01*
X15244Y126675D01*
X16075Y127313D01*
X16946Y127895D01*
X17854Y128418D01*
X18793Y128882D01*
X19761Y129283D01*
X20753Y129619D01*
X21765Y129890D01*
X22792Y130095D01*
X23831Y130232D01*
X24876Y130300D01*
X25924Y130300D01*
X26969Y130232D01*
X28008Y130095D01*
X29035Y129890D01*
X30047Y129619D01*
X31039Y129283D01*
X32007Y128882D01*
X32946Y128418D01*
X33854Y127895D01*
X34725Y127313D01*
X35556Y126675D01*
X36343Y125984D01*
X37084Y125243D01*
X37775Y124456D01*
X38413Y123625D01*
X38995Y122754D01*
X39518Y121846D01*
X39982Y120907D01*
X40383Y119939D01*
X40719Y118947D01*
X40990Y117935D01*
X41195Y116908D01*
X41332Y115869D01*
X41400Y114824D01*
X41400Y113776D01*
X143000Y113776D02*
X142932Y112731D01*
X142795Y111692D01*
X142590Y110665D01*
X142319Y109653D01*
X141983Y108661D01*
X141582Y107693D01*
X141118Y106754D01*
X140595Y105846D01*
X140013Y104975D01*
X139375Y104144D01*
X138684Y103357D01*
X137943Y102616D01*
X137156Y101925D01*
X136325Y101288D01*
X135454Y100706D01*
X134546Y100182D01*
X133607Y99718D01*
X132639Y99317D01*
X131647Y98981D01*
X130635Y98710D01*
X129608Y98505D01*
X128569Y98369D01*
X127524Y98300D01*
X126476Y98300D01*
X125431Y98369D01*
X124392Y98505D01*
X123365Y98710D01*
X122353Y98981D01*
X121361Y99317D01*
X120393Y99718D01*
X119454Y100182D01*
X118546Y100706D01*
X117675Y101288D01*
X116844Y101925D01*
X116057Y102616D01*
X115316Y103357D01*
X114625Y104144D01*
X113988Y104975D01*
X113406Y105846D01*
X112882Y106754D01*
X112418Y107693D01*
X112017Y108661D01*
X111681Y109653D01*
X111410Y110665D01*
X111205Y111692D01*
X111069Y112731D01*
X111000Y113776D01*
X111000Y114824D01*
X111069Y115869D01*
X111205Y116908D01*
X111410Y117935D01*
X111681Y118947D01*
X112017Y119939D01*
X112418Y120907D01*
X112882Y121846D01*
X113406Y122754D01*
X113988Y123625D01*
X114625Y124456D01*
X115316Y125243D01*
X116057Y125984D01*
X116844Y126675D01*
X117675Y127313D01*
X118546Y127895D01*
X119454Y128418D01*
X120393Y128882D01*
X121361Y129283D01*
X122353Y129619D01*
X123365Y129890D01*
X124392Y130095D01*
X125431Y130232D01*
X126476Y130300D01*
X127524Y130300D01*
X128569Y130232D01*
X129608Y130095D01*
X130635Y129890D01*
X131647Y129619D01*
X132639Y129283D01*
X133607Y128882D01*
X134546Y128418D01*
X135454Y127895D01*
X136325Y127313D01*
X137156Y126675D01*
X137943Y125984D01*
X138684Y125243D01*
X139375Y124456D01*
X140013Y123625D01*
X140595Y122754D01*
X141118Y121846D01*
X141582Y120907D01*
X141983Y119939D01*
X142319Y118947D01*
X142590Y117935D01*
X142795Y116908D01*
X142932Y115869D01*
X143000Y114824D01*
X143000Y113776D01*
X206500Y113776D02*
X206432Y112731D01*
X206295Y111692D01*
X206090Y110665D01*
X205819Y109653D01*
X205483Y108661D01*
X205082Y107693D01*
X204618Y106754D01*
X204095Y105846D01*
X203513Y104975D01*
X202875Y104144D01*
X202184Y103357D01*
X201443Y102616D01*
X200656Y101925D01*
X199825Y101288D01*
X198954Y100706D01*
X198046Y100182D01*
X197107Y99718D01*
X196139Y99317D01*
X195147Y98981D01*
X194135Y98710D01*
X193108Y98505D01*
X192069Y98369D01*
X191024Y98300D01*
X189976Y98300D01*
X188931Y98369D01*
X187892Y98505D01*
X186865Y98710D01*
X185853Y98981D01*
X184861Y99317D01*
X183893Y99718D01*
X182954Y100182D01*
X182046Y100706D01*
X181175Y101288D01*
X180344Y101925D01*
X179557Y102616D01*
X178816Y103357D01*
X178125Y104144D01*
X177488Y104975D01*
X176906Y105846D01*
X176382Y106754D01*
X175918Y107693D01*
X175517Y108661D01*
X175181Y109653D01*
X174910Y110665D01*
X174705Y111692D01*
X174569Y112731D01*
X174500Y113776D01*
X174500Y114824D01*
X174569Y115869D01*
X174705Y116908D01*
X174910Y117935D01*
X175181Y118947D01*
X175517Y119939D01*
X175918Y120907D01*
X176382Y121846D01*
X176906Y122754D01*
X177488Y123625D01*
X178125Y124456D01*
X178816Y125243D01*
X179557Y125984D01*
X180344Y126675D01*
X181175Y127313D01*
X182046Y127895D01*
X182954Y128418D01*
X183893Y128882D01*
X184861Y129283D01*
X185853Y129619D01*
X186865Y129890D01*
X187892Y130095D01*
X188931Y130232D01*
X189976Y130300D01*
X191024Y130300D01*
X192069Y130232D01*
X193108Y130095D01*
X194135Y129890D01*
X195147Y129619D01*
X196139Y129283D01*
X197107Y128882D01*
X198046Y128418D01*
X198954Y127895D01*
X199825Y127313D01*
X200656Y126675D01*
X201443Y125984D01*
X202184Y125243D01*
X202875Y124456D01*
X203513Y123625D01*
X204095Y122754D01*
X204618Y121846D01*
X205082Y120907D01*
X205483Y119939D01*
X205819Y118947D01*
X206090Y117935D01*
X206295Y116908D01*
X206432Y115869D01*
X206500Y114824D01*
X206500Y113776D01*
X308100Y113776D02*
X308032Y112731D01*
X307895Y111692D01*
X307690Y110665D01*
X307419Y109653D01*
X307083Y108661D01*
X306682Y107693D01*
X306218Y106754D01*
X305695Y105846D01*
X305113Y104975D01*
X304475Y104144D01*
X303784Y103357D01*
X303043Y102616D01*
X302256Y101925D01*
X301425Y101288D01*
X300554Y100706D01*
X299646Y100182D01*
X298707Y99718D01*
X297739Y99317D01*
X296747Y98981D01*
X295735Y98710D01*
X294708Y98505D01*
X293669Y98369D01*
X292624Y98300D01*
X291576Y98300D01*
X290531Y98369D01*
X289492Y98505D01*
X288465Y98710D01*
X287453Y98981D01*
X286461Y99317D01*
X285493Y99718D01*
X284554Y100182D01*
X283646Y100706D01*
X282775Y101288D01*
X281944Y101925D01*
X281157Y102616D01*
X280416Y103357D01*
X279725Y104144D01*
X279088Y104975D01*
X278506Y105846D01*
X277982Y106754D01*
X277518Y107693D01*
X277117Y108661D01*
X276781Y109653D01*
X276510Y110665D01*
X276305Y111692D01*
X276169Y112731D01*
X276100Y113776D01*
X276100Y114824D01*
X276169Y115869D01*
X276305Y116908D01*
X276510Y117935D01*
X276781Y118947D01*
X277117Y119939D01*
X277518Y120907D01*
X277982Y121846D01*
X278506Y122754D01*
X279088Y123625D01*
X279725Y124456D01*
X280416Y125243D01*
X281157Y125984D01*
X281944Y126675D01*
X282775Y127313D01*
X283646Y127895D01*
X284554Y128418D01*
X285493Y128882D01*
X286461Y129283D01*
X287453Y129619D01*
X288465Y129890D01*
X289492Y130095D01*
X290531Y130232D01*
X291576Y130300D01*
X292624Y130300D01*
X293669Y130232D01*
X294708Y130095D01*
X295735Y129890D01*
X296747Y129619D01*
X297739Y129283D01*
X298707Y128882D01*
X299646Y128418D01*
X300554Y127895D01*
X301425Y127313D01*
X302256Y126675D01*
X303043Y125984D01*
X303784Y125243D01*
X304475Y124456D01*
X305113Y123625D01*
X305695Y122754D01*
X306218Y121846D01*
X306682Y120907D01*
X307083Y119939D01*
X307419Y118947D01*
X307690Y117935D01*
X307895Y116908D01*
X308032Y115869D01*
X308100Y114824D01*
X308100Y113776D01*
M02*
